<?xml version="1.0" encoding="UTF-8"?>
<svg id="Ebene_1" data-name="Ebene 1" xmlns="http://www.w3.org/2000/svg" viewBox="0 0 21.53 25.64">
  <defs>
    <style>
      .cls-1 {
        fill: #ffed00;
      }

      .cls-2 {
        fill: none;
        stroke: #f9b233;
        stroke-miterlimit: 10;
      }
    </style>
  </defs>
  <path class="cls-1" d="M21.5,10.86c-.46,1.47-2.09.93-4.67,1.08-4.46,0-11.61.23-15.41,0-1.53-.22-1.58-1.46-1.27-3.02C2.65-3.98,21.19-2.47,21.53,10.74"/>
  <path class="cls-2" d="M4.37,25.11c-.37.13-.67-.31-.66-.71-.01-1.85-.01-7.81,0-9.66-.04-.68.76-1.06.95-.25.08.4.03,1.13.04,2.03v6.34c-.02,1.29.11,2.06-.27,2.22l-.06.03Z"/>
  <path class="cls-2" d="M11.09,25.11c-.37.13-.67-.31-.66-.71-.01-1.85-.01-7.81,0-9.66-.04-.68.76-1.06.95-.25.08.4.03,1.13.04,2.03v6.34c-.02,1.29.11,2.06-.27,2.22l-.06.03Z"/>
  <path class="cls-2" d="M17.81,25.03c-.37.13-.67-.31-.66-.71-.01-1.85-.01-7.81,0-9.66-.04-.68.76-1.06.95-.25.08.4.03,1.13.04,2.03v6.34c-.02,1.29.11,2.06-.27,2.22l-.06.03Z"/>
</svg>